<svg width="174" height="130" viewBox="0 0 174 130" fill="none" xmlns="http://www.w3.org/2000/svg">
<g id="Deco Lines">
<circle id="Ellipse Outline" opacity="0.08" cx="100.899" cy="64.9531" r="64.934" fill="white"/>
<circle id="Ellipse Outline_2" opacity="0.04" cx="100.899" cy="64.9531" r="80.4492" fill="white"/>
<circle id="Ellipse Outline_3" opacity="0.04" cx="100.946" cy="65" r="100.62" fill="white"/>
<g id="sultra">
<path id="path77226" d="M43.3685 23.8934L42.0585 24.8243L42.8366 28.6849L41.7969 35.8592L37 42.544L40.2434 48.3149L43.6215 50.9834L44.1542 51.3999L47.8659 48.936L44.5852 44.053L45.6283 38.9213L48.9072 37.6103L50.9436 40.2085L53.0184 40.5052L52.9006 35.216L50.9903 32.4969L51.1819 31.2258L49.9355 29.0677L49.9497 29.0535L49.9479 29.0512L50.813 28.1902L49.7088 25.6809L47.1866 26.7042L46.9219 26.8279L46.9088 26.8166L46.8626 26.8356L43.3685 23.8934Z" fill="#95C134"/>
<g id="Clip path group">
<mask id="mask0_13_7553" style="mask-type:luminance" maskUnits="userSpaceOnUse" x="43" y="7" width="81" height="115">
<g id="clipPath44767">
<path id="rect44769" d="M124 7H43.0769V121.948H124V7Z" fill="white"/>
</g>
</mask>
<g mask="url(#mask0_13_7553)">
<g id="g78226">
<g id="g78130" filter="url(#filter0_d_13_7553)">
<path id="path78128" d="M87.0661 94.6423L86.6053 94.6473L86.1611 95.2257L85.6387 96.9654L86.1671 97.2774L86.1441 98.0992L85.8418 98.3759L85.031 98.242L83.9512 99.0351L83.7428 99.7527L83.6802 100.024L84.135 100.392L84.6475 100.183L84.9924 99.8016L85.5488 99.8849L86.1215 99.6751L86.4962 100.655L88.067 99.3471L88.5728 99.1703L89.2594 97.3014L89.1225 96.2309L88.2814 95.6469L88.1569 94.909L87.5929 94.8981L87.0661 94.6423Z" fill="#95C134"/>
</g>
<g id="g78134" filter="url(#filter1_d_13_7553)">
<path id="path78132" d="M82.1819 55.8486L81.4284 55.8905L80.6808 56.7676C80.6808 56.7676 80.6309 58.1131 80.6063 58.194L81.0787 58.3022L81.7044 59.3843L82.2711 59.4196C82.2711 59.4196 82.0923 59.8015 82.092 59.8365C82.0916 59.8715 82.639 60.0253 82.639 60.0253L83.8956 59.417L83.9655 59.7536L84.3465 59.8282L85.0683 58.2449L84.6901 57.7918L83.0356 57.9779L82.8694 57.3749L84.7207 57.4791L85.1732 57.006L85.1839 56.8828L82.8418 56.5518L82.1819 55.8486Z" fill="#95C134"/>
</g>
<g id="g78138" filter="url(#filter2_d_13_7553)">
<path id="path78136" d="M88.5791 99.1887L88.1106 99.3255L86.7382 99.3487L86.0206 99.7111L85.5491 99.9115L84.9954 99.8206L84.6794 100.121L84.1337 100.388L83.6909 100.697L83.9632 101.705L84.7763 103.364L84.735 103.907L85.5298 104.986L86.253 104.741L87.5559 102.738L87.792 102.928L87.498 104.366L87.9029 104.724L87.9811 104.629L87.9275 104.235L88.4842 103.29L88.7845 103.37L88.7762 103.74L88.9597 103.871L88.6617 104.743L89.2913 105.038L90.1567 104.769L90.5499 103.799L90.9841 103.212L90.6755 102.623L90.2925 100.406L88.5791 99.1887ZM82.6417 99.4141L81.5252 99.6811L81.1227 100.235L81.1423 100.57L81.6278 101.066C81.6278 101.066 81.9568 101.089 82.1113 101.025L82.1596 100.865L82.2102 100.193L82.335 99.9365L82.6417 99.4141ZM82.0873 102.803C82.0873 102.803 82.053 103.353 82.021 103.416L81.8083 103.503L81.4503 104.023L80.9496 104.228L80.7261 104.4L80.7401 104.603L81.2346 104.524L81.737 104.783L82.6314 104.659L83.1967 104.308L83.4821 103.535L83.1791 102.889L82.6976 102.867L82.0873 102.803Z" fill="#95C134"/>
</g>
<g id="g78142" filter="url(#filter3_d_13_7553)">
<path id="path78140" d="M77.0106 89.8054C77.0106 89.8054 76.7419 91.5944 76.7376 91.7026C76.7336 91.8112 76.96 92.4894 76.96 92.4894L75.6927 94.663L75.698 96.3908L76.057 96.7287L78.3554 96.5719L78.8249 95.8913L78.5069 95.2167L78.7776 94.7396L80.5137 94.5215L78.8702 94.9876L79.1952 96.1221C79.1952 96.1221 79.4932 96.8299 79.5801 96.8756C79.6673 96.9212 80.6642 97.0181 80.6642 97.0181L81.1766 96.8399L81.2908 95.89L81.5975 96.1031L81.9611 95.0566L81.4523 94.1169L83.0193 93.0538C83.0193 93.0538 83.3073 92.8746 83.0449 93.3544C82.7822 93.8339 82.7083 94.5814 82.7083 94.5814L83.1148 94.946L82.4146 97.0174L82.7382 97.9604L83.239 98.011L83.8933 97.1895L84.5199 97.8451L84.804 97.5931L84.5855 96.0771L85.2568 95.3133L85.2102 96.0102L85.2938 96.1007L85.9121 95.6083L85.9427 94.3607L86.0519 93.7244L85.4589 92.7701L84.2502 92.9029L84.1743 92.7015L85.1433 92.0156L85.3097 91.5701L83.6909 91.8481L82.9846 91.3686L82.3533 91.3563L82.2331 91.9986L80.865 92.1175L79.9776 91.9004L80.1884 91.2907L78.7317 91.1316L77.9239 90.0298L77.0106 89.8054ZM66.5482 97.7063L66.1862 97.8302L66.9687 98.4322C66.9687 98.4322 67.2267 99.5632 67.2963 99.6775C67.3659 99.7917 67.4222 100.218 67.4222 100.218C67.4222 100.218 67.6403 100.286 67.6463 100.278C67.6526 100.269 67.5021 99.8446 67.5604 99.8423C67.6183 99.8399 68.6229 99.6665 68.6229 99.6665L68.7221 99.4617L69.1163 99.5373L69.2438 99.7304L69.6424 99.6871L70.1702 99.2516L70.0636 98.4505L70.0659 97.7403L66.5482 97.7063ZM70.8384 99.6238L70.7455 100.036L71.0828 100.234L71.3588 100.003L71.2097 99.6365L70.8384 99.6238ZM70.0569 99.9218L68.7038 100.959L69.5598 100.911L70.4375 100.263L70.0569 99.9218Z" fill="#95C134"/>
</g>
<g id="g78146" filter="url(#filter4_d_13_7553)">
<path id="path78144" d="M77.3039 74.8962L76.7818 75.0131L76.8125 75.3584L77.0029 75.4076L77.231 75.1616L77.3039 74.8962ZM77.7401 75.2122L77.3076 75.644L76.8724 75.9644L76.8235 76.3862L76.98 76.4049C76.98 76.4049 77.0612 76.3293 77.1541 76.2471C77.2473 76.1648 77.4684 75.6494 77.4684 75.6494C77.4684 75.6494 77.8457 75.374 77.8603 75.3497C77.8753 75.3254 77.7401 75.2122 77.7401 75.2122ZM77.8004 75.6654L77.574 76.1701L77.6143 76.4452L77.7315 76.4641L78.0404 76.3103L78.2106 75.8005L77.8004 75.6654ZM84.7607 75.9178L84.6891 76.4092L81.7727 78.2955L81.0198 78.8092L78.6664 78.7027L77.0545 81.2745L78.1287 84.0125L80.1142 83.2526L82.4236 84.2688L84.3991 85.7935L86.265 83.0442L84.9332 81.4197L83.8777 81.3621L83.5197 80.3455L86.2996 78.2911L85.6933 77.5443L85.6144 75.9893L84.7607 75.9178ZM76.5288 76.0672L76.3946 76.2397L76.3653 76.5151L76.5764 76.4825L76.5288 76.0672ZM78.4267 76.4232L78.1457 76.6303L77.5616 77.2762L77.1358 77.9805L77.2167 78.1303L77.6059 77.8503L77.815 77.6375L78.2642 77.2759L78.6784 76.6097L78.4267 76.4232ZM77.4155 76.9546L77.279 77.0279L77.1837 77.176L77.2526 77.2626L77.4641 77.1227L77.4155 76.9546ZM76.5811 77.0548L76.309 77.3475L76.31 77.7357L76.5241 77.8829L76.9214 77.3109L76.894 77.0731L76.5811 77.0548ZM78.0484 78.2102L77.8497 78.2289L77.8147 78.2182L77.7667 78.4017L77.83 78.5019L78.0198 78.5255L78.0608 78.2708L78.0484 78.2102ZM76.2358 80.6608L76.0546 80.9995L76.1329 81.3511L76.2015 81.366L76.311 81.1922L76.3566 80.8553L76.2358 80.6608ZM75.6245 81.987L75.4277 82.0713L75.4323 82.1479L75.5189 82.2228L75.719 82.0729L75.6245 81.987ZM77.3515 83.2666L77.1474 83.6888L77.2653 83.9166L77.5616 83.814L77.6196 83.3988L77.3515 83.2666Z" fill="#95C134"/>
</g>
<g id="g78150" filter="url(#filter5_d_13_7553)">
<path id="path78148" d="M93.9698 60.7562L94.2292 59.667L94.761 59.6977L96.0738 57.6446L98.2005 58.8709L99.9592 58.5003L101.347 58.7074L102.666 60.4785L101.638 62.4726L99.9479 64.2367L99.0892 65.3161L97.4823 65.0541L95.6613 63.7835L94.3511 61.9572L93.9698 60.7562Z" fill="#95C134"/>
</g>
<g id="g78156" filter="url(#filter6_d_13_7553)">
<path id="path78152" d="M47.8387 48.8953L44.4156 44.0627L45.6766 38.9077L48.907 37.6105L50.9436 40.2086L53.0182 40.5053L55.4875 45.5653L57.9942 51.0536L60.5312 52.0129L62.6322 50.7999L66.6124 54.0493L67.4099 56.4633L67.263 60.2884L68.1824 61.9069L68.5246 67.4641L67.576 69.6347L64.0203 70.8903L62.6565 70.3343L61.0696 65.184L62.1963 62.0344L61.1798 59.5422L59.9196 56.5562L57.3904 53.3584L52.7887 50.1922L52.6404 47.8588L52.4529 47.6384L50.1647 49.176L49.9457 49.9142L47.8387 48.8953Z" stroke="#52A169" stroke-width="0.221744"/>
<path id="path78154" d="M47.8387 48.8953L44.4156 44.0627L45.6766 38.9077L48.907 37.6105L50.9436 40.2086L53.0182 40.5053L55.4875 45.5653L57.9942 51.0536L60.5312 52.0129L62.6322 50.7999L66.6124 54.0493L67.4099 56.4633L67.263 60.2884L68.1824 61.9069L68.5246 67.4641L67.576 69.6347L64.0203 70.8903L62.6565 70.3343L61.0696 65.184L62.1963 62.0344L61.1798 59.5422L59.9196 56.5562L57.3904 53.3584L52.7887 50.1922L52.6404 47.8588L52.4529 47.6384L50.1647 49.176L49.9457 49.9142L47.8387 48.8953Z" fill="#95C134"/>
</g>
<g id="g78160" filter="url(#filter7_d_13_7553)">
<path id="path78158" d="M70.5131 30.0878L64.0203 36.6286L62.169 37.7104L60.1047 37.2189L58.8215 35.5181L57.1431 36.0981L56.3887 37.4766L57.8742 42.4961L61.6123 44.104L62.7018 46.815L65.5866 46.3025L69.1536 47.7972L69.5645 49.1893L71.8849 50.7749L73.2224 51.8973L73.9769 51.284L75.8805 52.4943L76.9483 54.7162L80.1371 54.588L81.3415 53.2522L80.3446 51.3932L77.9542 51.3999L73.615 47.4726L73.9776 46.4064L75.8375 46.0228L76.5468 43.6867L74.9039 41.7256L75.8948 41.0763L77.527 42.1598L78.3794 43.5772L78.9564 42.1378L76.2871 40.4933L76.5608 36.5706L75.3801 34.6564L73.8997 33.9039L70.5148 30.0878H70.5131Z" fill="#95C134"/>
</g>
<g id="g78164" filter="url(#filter8_d_13_7553)">
<path id="path78162" d="M91.5082 74.8772L93.6671 75.2881L93.3518 80.4237L93.5869 81.9547L92.8174 84.0444L92.0786 87.1473L91.697 87.6427L91.384 88.5461L91.7429 88.7808L92.0882 88.6996L92.3583 88.9103L92.8437 88.7858L93.3215 89.2989L94.13 89.8366L94.7013 89.4081L94.9108 88.6699L94.7902 88.2787L95.0869 87.4516L94.7643 86.517L94.3767 86.5639L94.3121 86.3465L94.4336 86.1257L94.8139 84.4942L95.7069 84.0314L95.8654 82.7115L95.4875 81.0427L96.7617 80.2869L96.3495 79.3672L96.6472 78.7676L97.2082 79.4528L97.4733 79.0026L97.75 79.0679L97.8312 78.8598L98.0073 79.2976L97.6484 79.9709L97.5795 80.3142L97.4057 80.1823L96.808 80.5456L96.8706 80.6954L97.1826 80.6968L97.107 80.9062L96.9592 80.9365L96.6612 80.7986L96.5077 80.8949L96.5097 81.0677L97.0254 81.3167L97.0391 81.4492L97.1629 81.4869L97.3857 81.3387L97.9258 81.6377L98.1958 81.5571L98.1146 81.1479L98.2361 81.1666L98.2671 81.5495L98.6613 81.4566L98.7965 80.6758L98.7638 80.0714L98.4805 80.0601L98.6729 79.4491L98.4648 79.1438L98.4918 78.627C98.4918 78.627 98.6929 78.8804 98.6972 78.9021C98.7012 78.9234 98.916 79.2137 98.916 79.2137C98.916 79.2137 99.0542 79.1028 99.0415 79.0759C99.0292 79.0489 98.7495 78.638 98.7495 78.638C98.7495 78.638 98.6003 78.4382 98.595 78.4396C98.5897 78.4412 98.612 78.3657 98.612 78.3657L98.8045 78.3497C98.8045 78.3497 98.7528 78.1126 98.7469 78.102C98.7405 78.0913 98.604 77.7923 98.604 77.7923L98.7622 77.5203L99.0292 77.9568L99.7318 78.5012L99.3339 79.0079L100.233 79.5147L100.173 79.9123L100.397 81.1765L100.909 81.8508L101.284 82.1262L101.491 81.9454L101.537 81.0447L101.203 79.5667L101.461 78.0414L101.246 76.535L101.026 76.3972L100.927 76.5107L100.986 76.9479L100.847 76.899L100.534 76.7957L100.607 76.4678L100.763 76.2966L100.687 76.0352L101.031 75.9437L100.965 75.679L100.791 75.8425L100.737 75.667L100.944 75.5921L101.137 75.2774L101.232 75.4715L101.321 75.3613L101.371 75.1153L101.149 74.9245L100.341 73.244L99.6259 72.1782L99.3841 71.477L98.7022 71.3125L98.3932 70.839L97.7313 70.8217L97.684 70.3708L96.8573 69.9084L97.2615 69.4362L97.4759 69.4375L97.8702 68.8502L97.7446 68.2881L96.9335 68.4776L95.9832 69.0969L94.1789 70.192L93.0492 71.3378L92.2617 72.662L92.0559 72.8884L91.8392 73.7961L91.5082 74.8772Z" fill="#95C134"/>
</g>
<g id="g78172" filter="url(#filter9_d_13_7553)">
<path id="path78170" d="M111.287 92.3372L110.56 92.4747L110.028 92.4707L109.736 92.82L110.211 95.0252L111.346 96.0594L111.954 96.4377L112.962 95.8603L112.924 94.8554L113.277 93.7277C113.277 93.7277 112.731 93.0628 112.654 93.0008C112.578 92.9386 111.287 92.3372 111.287 92.3372ZM130.995 93.6215L130.83 93.7696L130.932 93.9594C130.932 93.9594 131.288 93.9085 131.306 93.9048C131.324 93.9012 131.244 93.7293 131.244 93.7293L130.995 93.6215ZM131.702 94.5138L131.743 94.6573L132.018 95.0402L132.474 95.3835L132.609 95.0213L132.018 94.5168L131.702 94.5138ZM108.374 94.5857L108.272 94.8331L108.518 95.257L108.65 95.4727L109.35 95.7927L109.885 96.0102L110.125 96.0971L110.374 95.9845L110.279 95.7771C110.279 95.7771 110.078 95.9133 110.052 95.9459C110.049 95.9029 109.977 95.6635 109.977 95.6635L109.264 95.0166L108.374 94.5857ZM113.091 96.174L112.965 96.197L112.767 96.3185L112.807 96.4017L112.971 96.438L113.144 96.2912L113.091 96.174ZM112.38 96.6854L112.195 96.7826C112.195 96.7826 111.96 96.777 111.925 96.7823C111.89 96.7876 111.572 96.8878 111.572 96.8878L111.805 97.1409L112.315 97.4176L112.907 97.5711L113.172 97.2112L112.856 97.0603L112.38 96.6854ZM116.722 98.1584L116.404 98.22C116.404 98.22 116.337 98.6892 116.337 98.6922L116.42 98.7185L116.634 98.5647L116.961 98.6948L117.198 98.7122L116.722 98.1584ZM114.448 98.526L114.688 98.838L115.065 99.4983L115.595 100.038C115.595 100.038 115.793 100.136 115.854 100.17C115.915 100.204 116.379 100.732 116.379 100.732L116.356 100.906L116.71 101.429L116.946 101.845L117.414 101.92L117.953 102.156L117.903 101.844L117.687 101.584L117.681 101.448L118.207 101.295L118.131 101.064L117.759 100.947L117.508 100.573C117.508 100.573 117.202 100.343 117.076 100.236C116.951 100.129 116.618 99.6122 116.618 99.6122L116.145 99.3052L115.693 99.0624L115.642 98.8896L115.348 98.7092L115.186 98.7581C115.186 98.7581 114.478 98.5147 114.448 98.526ZM119.243 100.216L118.975 100.453L118.653 100.72L118.734 100.874L118.827 100.858L119.061 100.977L119.307 100.75L119.453 100.763L119.542 100.64L119.379 100.507L119.243 100.216ZM120.359 105.357L119.992 105.901L120.148 106.179L120.489 106.621L121.001 106.936L121.604 107.015L122.705 106.766L123.073 106.522L122.222 105.953L121.093 105.44L120.359 105.357ZM120.154 106.481L119.939 106.71L120.054 106.95L120.418 106.971L120.858 107.098L120.472 106.778L120.154 106.481ZM119.412 106.997L119.29 106.999L119.226 107.211L119.285 107.294L119.376 107.266L119.412 106.997ZM120.869 107.614L120.588 107.663L120.243 107.625L120.224 107.708L120.468 107.943L120.773 108.179L121.019 108.238L121.317 108.192L121.442 107.959L121.316 107.733L120.869 107.614ZM122.664 109.661L122.285 110.265L122.326 110.639L122.179 110.943L122.087 111.291L122.502 112.035L123.126 112.234L123.987 112.395L124.257 112.67L124.226 113.131L123.93 113.438L123.939 113.706L124.146 114.052L124.376 113.894L124.807 113.786L125.163 113.353L124.95 112.61L124.746 112.32L124.569 111.686L124.08 110.632L123.532 110.22L122.664 109.661Z" fill="#95C134"/>
</g>
<g id="g78176" filter="url(#filter10_d_13_7553)">
<path id="path78174" d="M67.553 69.64L63.98 70.909L62.6704 70.3206L60.6487 73.6592L53.7026 74.5153L53.6754 74.5526L53.6477 76.8773L55.6794 79.4472L59.8458 81.8558L64.1302 81.6184L68.5952 83.3938L72.2435 80.8763L70.0246 78.0237L71.9738 72.9011V72.9004L71.2899 72.8997L71.1827 72.1489L69.6264 71.5769L69.6521 71.2589L67.553 69.64ZM67.3196 87.3301L66.6034 88.1072L66.7286 88.8538L65.5313 88.1922L65.3841 87.8189L64.4158 88.7289L65.0168 89.2733L65.0468 89.5646L64.2331 89.0409L64.1781 89.5104L65.2799 90.2306L64.7868 90.6471L64.3216 90.3681L63.6317 91.0963L63.4403 91.9157L62.8499 93.8669L63.7249 94.6324L64.7531 96.3941L66.0763 97.7729L66.6194 97.7326L70.0689 97.7403L69.7203 95.6782L70.1339 95.0705L69.8994 92.8617L70.6889 92.4548L69.4459 90.0568L68.8722 90.5792L67.9033 89.234L67.8134 87.6221L67.3196 87.3301Z" fill="#95C134"/>
</g>
<g id="g78180" filter="url(#filter11_d_13_7553)">
<path id="path78178" d="M78.114 57.4149L77.6752 58.201L75.8852 57.7918L75.6547 58.4051L74.7051 58.4184L73.1489 59.688L73.0779 60.1012L68.1973 62.0361L68.525 67.4644L67.5637 69.6187L69.6261 71.2589V71.5769L71.1937 72.1373L71.2346 72.8741L71.9738 72.9004L71.9818 72.8791L74.4441 71.5239L78.723 70.902L79.932 70.253L84.5909 69.1975L86.6639 70.9116L86.568 71.0162L86.5364 71.4517L86.8777 72.2375L87.3894 72.096L87.0298 71.726L87.0075 71.1956L88.051 72.0587L89.2397 71.6378L89.1478 70.1278L86.5707 67.8214L87.167 67.2976L91.1672 70.6113L93.0422 68.8702L93.1457 63.2724L91.957 60.1638L91.0983 59.3015L89.277 59.3824L91.3041 61.3512L91.2951 61.9928L89.1222 62.0151L87.4294 61.4224L86.9313 62.1616L86.0589 59.3844L86.6453 58.6319L86.0972 57.6336L85.071 58.2433L85.065 58.2563L84.3225 59.8282L83.9709 59.763L83.858 59.425L82.675 60.0253L82.092 59.8365L82.2358 59.3934L81.6807 59.3754L81.0787 58.3022L80.6642 58.2067L78.114 57.4149Z" fill="#95C134"/>
</g>
<g id="g78184" filter="url(#filter12_d_13_7553)">
<path id="path78182" d="M52.4301 47.6916L50.1649 49.176L49.9455 49.9142L47.8657 48.9359L44.1544 51.3999L48.1076 54.4878L47.6288 54.7998L47.7767 55.9741L49.2006 55.3418L52.9059 58.6918L57.5936 60.0573L56.344 65.42L55.9751 65.0201L55.3027 64.9312L55.5689 66.5531L55.096 67.244L55.0573 69.9207L53.6848 74.5189L60.6487 73.6592L62.6724 70.4441L61.0696 65.1839L62.2073 62.0993L59.9655 56.6384L57.4632 53.4096L52.7996 50.2002L52.6403 47.8588L52.4301 47.6916ZM51.007 60.582L50.8987 60.868L51.3769 61.0545L51.7322 62.7123L52.9383 62.8722L53.7682 61.3112L52.2838 60.586L51.007 60.582ZM54.2736 62.9557L53.7239 63.9819L54.1404 64.6239L54.7004 63.7136L54.2736 62.9557Z" fill="#95C134"/>
</g>
<g id="g78188" filter="url(#filter13_d_13_7553)">
<path id="path78186" d="M58.0066 28.1996L53.3659 31.2259H51.1817L50.9901 32.4968L52.945 35.2847L53.0182 40.5053L58.1161 51.1145L60.5551 52.0125L62.6768 50.8242L66.6417 54.1275L67.4192 56.3904L67.274 60.317L68.1783 61.9649L73.0523 60.1286L73.1612 59.6661L74.7008 58.4188L75.6547 58.4051L75.8852 57.7918L77.6645 58.1834L78.1343 57.4026L80.6066 58.194L80.6808 56.7676L81.4287 55.8906L82.1818 55.8486L82.9114 56.6015L85.2301 56.8938L85.9111 56.2352L86.4961 55.6235L86.5044 55.5779L82.339 55.1111L81.3301 53.2309L80.1414 54.6147L76.9953 54.7282L75.8805 52.4807L73.9769 51.284L73.2028 51.9403L71.8849 50.7749L69.5485 49.1567L69.1469 47.7945L65.5865 46.3025L62.6428 46.8193L61.6123 44.104L57.8742 42.4961L56.3887 37.4766L57.1431 36.0985L58.8523 35.5264L60.0912 37.2219L62.1424 37.6791L64.0429 36.6202L70.5148 30.0878L62.8436 29.4688L58.0066 28.1996Z" fill="#95C134"/>
</g>
<g id="g78192" filter="url(#filter14_d_13_7553)">
<path id="path78190" d="M87.9056 72.4484L87.5182 72.4762C87.5182 72.4762 87.0759 72.8765 87.0193 73.0051L87.2176 73.5028L87.5316 73.7238L87.7807 73.4937L88.1269 73.7003L88.5522 74.0259L88.5791 73.9096L88.4343 73.5953L88.5098 73.3419L88.2885 73.0669C88.2885 73.0669 88.5022 72.9003 88.5131 72.8574C88.5238 72.8144 87.9056 72.4484 87.9056 72.4484ZM86.9953 73.7279L86.9109 74.0458L87.2883 74.2151L87.3801 74.0724L86.9953 73.7279ZM87.6436 74.3676L87.5942 74.4205L87.5882 74.5088L87.9416 74.7615L88.2919 74.7528L87.6436 74.3676ZM91.5083 74.8773L91.0967 76.5903L91.3801 77.8959L91.779 79.642L91.2638 81.2639L90.8596 81.1707L90.4465 82.1742L90.8886 82.5149L91.1242 83.5624L90.8167 83.7125L90.6627 84.2859L90.5891 85.2471L90.113 85.4175L89.4216 85.98L88.5621 86.9575L88.5928 87.3209L88.9327 86.8915L89.9979 86.2864L90.2842 86.5266L90.0902 87.3312L89.1125 88.6067L89.2084 88.873L89.9399 87.961L90.7174 88.0382L90.9526 88.4379L91.3839 88.5458L91.7263 87.5549L92.0756 87.1476L92.7711 84.2032L93.579 81.9968C93.579 81.9968 93.3374 80.4312 93.3518 80.4238C93.3657 80.4165 93.6642 75.3177 93.6642 75.3177L91.5083 74.8773ZM86.7196 75.0067L85.6175 75.9571L85.7127 77.5557L86.2996 78.291L83.5484 80.3663L83.8774 81.362L84.9332 81.4171L86.265 83.0443L84.3991 85.7935L82.4235 84.2692L80.1141 83.2531L78.1347 83.9908C78.1347 83.9908 78.7236 85.4082 78.7626 85.5537C78.7892 85.6523 78.7025 86.2579 78.6475 86.6422C78.6215 86.824 78.6024 86.9562 78.606 86.9615C78.617 86.9778 79.0254 87.9109 79.0254 87.9109L77.3255 88.723L77.0472 89.8191L77.9585 90.0147L78.7317 91.1317L80.1884 91.2907L79.9158 91.9085L80.7853 92.1286L82.2495 91.9799L82.389 91.3803L82.9846 91.3686L83.6909 91.8485L85.2802 91.5903L85.4111 91.1729L84.4147 91.2645L84.413 90.399L85.1948 88.8037L85.0354 88.6127L86.261 87.1874L87.8452 85.5607L88.3168 84.8033L89.1869 84.986L89.0476 82.6437L88.3504 82.3236L88.6517 80.0649L88.0883 77.2632L88.5077 76.0369L86.7196 75.0067Z" fill="#95C134"/>
</g>
<g id="g78196" filter="url(#filter15_d_13_7553)">
<path id="path78194" d="M89.9686 87.9461L89.8544 88.8264L89.4804 88.8644L88.4862 90.5379L88.6264 90.7726L88.948 90.738L89.0333 91.033L88.7796 91.6806L88.8685 91.9796L89.1744 91.8907L89.924 90.9244L90.444 91.9203L89.1205 92.8686L88.3693 92.4644L87.6348 93.3488L87.0455 94.5894L87.5925 94.898L88.1649 94.9277L88.2921 95.6465C88.2921 95.6465 89.1255 96.2352 89.1308 96.2835C89.1362 96.3321 89.2903 97.2651 89.2903 97.2651L88.5645 99.1563L90.2925 100.403L90.7001 102.723L91.1106 103.382L92.0386 102.218L92.7545 101.444L92.911 100.227L92.264 99.7803L91.5362 100.323L91.4346 99.9917L92.0726 98.4954L93.215 97.9214L94.418 97.1519L95.1232 96.6741L95.7042 96.9598L96.1847 98.0532L98.4905 97.0966L99.4514 96.6914L100.348 95.6149L101.176 94.7692L101.646 94.1875L101.937 93.3431L101.192 93.2179L100.697 92.4934L100.028 92.5367L98.8058 91.3423L98.2527 91.6123L98.654 90.9644L98.048 90.4576L97.3098 90.8798L97.5995 90.1789L96.523 89.3439L94.8269 90.8232L94.2388 91.6317L93.8136 91.323L93.3891 90.5852L94.1366 89.8243L93.3215 89.2989L92.8301 88.7858L92.3583 88.91L91.9843 88.7012L91.7429 88.7805L91.384 88.5457L91.0068 88.4888L90.7254 88.0463L89.9686 87.9461ZM88.3637 90.8246L87.8815 91.4036L87.9302 91.4658L88.1383 91.3863L88.4546 90.9507L88.3637 90.8246ZM87.6718 92.2513L86.8407 93.5812L86.9016 93.7323L87.0944 93.6701L87.4051 93.2922L87.6635 92.4274L87.6718 92.2513Z" fill="#95C134"/>
</g>
<path id="path78198" d="M70.5564 30.0685L64.0636 36.7278L62.3987 37.5602L60.2345 37.3937L58.7361 35.7289L57.0713 36.0618L56.5719 37.3937L58.0702 42.3882L61.8993 44.386L62.7317 46.8832L65.5619 46.3838L69.391 47.8821L69.724 49.3804L73.0536 51.8777L74.0525 51.3782L75.8838 52.5436L77.0492 54.7079H80.0459L81.3777 53.2095" stroke="#F0F2ED" stroke-width="0.886976" stroke-linecap="square"/>
<path id="path78200" d="M51.2444 31.2339L50.9115 32.7322L53.0757 35.3959L52.9093 40.3904L50.9115 40.2239L48.7472 37.8932L45.7505 39.0585L44.5851 44.2195L47.9148 49.0475L44.4187 51.3782" stroke="#ECF3EA" stroke-width="0.886976" stroke-linecap="square"/>
<path id="path78202" d="M47.9148 48.881L49.9126 49.8799L50.2455 49.214L52.2433 47.7156L52.7428 48.2151V50.2129L57.4043 53.376L59.9015 56.7057L62.2323 62.3661L61.0669 65.1963L62.7317 70.5237L60.5674 73.6869L53.7417 74.6858" stroke="#ECF3EA" stroke-width="0.886976" stroke-linecap="square"/>
<path id="path78204" d="M52.9093 40.5569L58.0702 51.0453L60.5674 51.8777L62.5652 51.0453L66.7273 54.3749L67.3932 56.3727V60.5348L68.2256 62.0331L68.5586 67.6935L67.3932 69.6913L63.8971 70.8567L62.8982 70.5237" stroke="#F0F2ED" stroke-width="0.886976" stroke-linecap="square"/>
<path id="path78206" d="M85.2068 56.8721L82.7096 56.5392L82.0437 55.8732L81.3778 55.7068L80.5453 56.7057V58.204L78.0481 57.5381L77.5487 58.204L76.0503 57.871L75.7173 58.3705L74.7185 58.537L73.2201 59.7023L72.8871 60.2018L68.3921 62.0331" stroke="#F0F2ED" stroke-width="0.886976" stroke-linecap="square"/>
<path id="path78208" d="M80.7118 58.204L81.0448 58.3705L81.5442 59.3694H82.0437L82.3766 60.0353L83.7085 59.7024L84.208 60.0353L85.0404 58.3705" stroke="#F0F2ED" stroke-width="0.886976" stroke-linecap="square"/>
<g id="path78210">
<path d="M67.3932 69.5248L69.5575 71.1896L69.724 71.6891L71.2223 72.1885V72.9563H72.0547" fill="black"/>
<path d="M67.3932 69.5248L69.5575 71.1896L69.724 71.6891L71.2223 72.1885V72.9563H72.0547" stroke="#F0F2ED" stroke-width="0.886976" stroke-linecap="square"/>
</g>
<g id="path78212">
<path d="M66.3943 97.9933L67.5597 97.6604H69.8905" fill="black"/>
<path d="M66.3943 97.9933L67.5597 97.6604H69.8905" stroke="#F0F2ED" stroke-width="0.886976" stroke-linecap="square"/>
</g>
<path id="path78214" d="M91.5332 74.8522L93.6974 75.3517L93.3645 80.3462L93.6974 82.011L92.865 84.1753L92.1991 87.1719L91.3667 88.6703L90.7008 88.1708" stroke="#F0F2ED" stroke-width="0.886976" stroke-linecap="square"/>
<g id="path78216">
<path d="M91.5332 88.6703L91.8662 88.8368H92.865L94.0304 89.8357" fill="black"/>
<path d="M91.5332 88.6703L91.8662 88.8368H92.865L94.0304 89.8357" stroke="#F0F2ED" stroke-width="0.886976" stroke-linecap="square"/>
</g>
<path id="path78218" d="M78.0481 84.0088L80.0459 83.3428L82.3766 84.1753L84.3744 85.6736L86.2057 83.1764L84.8739 81.5115L83.875 81.3451L83.3755 80.3462L86.3722 78.3484L85.7063 77.516L85.5398 75.8511" stroke="#F0F2ED" stroke-width="0.886976" stroke-linecap="square"/>
<g id="path78220">
<path d="M88.5365 99.3251H87.8706H86.3722L85.5398 99.8246H85.0404L84.0415 100.324" fill="black"/>
<path d="M88.5365 99.3251H87.8706H86.3722L85.5398 99.8246H85.0404L84.0415 100.324" stroke="#F0F2ED" stroke-width="0.886976" stroke-linecap="square"/>
</g>
<path id="path78222" d="M87.0381 94.6637L87.7041 94.8301H88.2035V95.829L89.2024 96.3285V97.3274L88.703 99.3252L90.3678 100.491L90.7008 102.821L91.0337 103.321" stroke="#F0F2ED" stroke-width="0.886976" stroke-linecap="square"/>
<path id="path78224" d="M77.0492 89.8357L77.8816 90.0021L78.5475 91.1675L80.0459 91.334L79.8794 91.8335L81.0448 92.1664L82.2101 91.9999L82.3766 91.5005H83.0426L83.542 91.8335L85.2068 91.667" stroke="#F0F2ED" stroke-width="0.886976" stroke-linecap="square"/>
</g>
</g>
</g>
</g>
<g id="tugu-mtq">
<g id="g24281">
<g id="g19401">
<g id="g1273">
<g id="g1141">
<path id="path1019" d="M123.859 33.747C125.354 33.7471 126.787 34.3408 127.844 35.3976C128.901 36.4544 129.495 37.8877 129.495 39.3822H123.859H118.224C118.224 37.8877 118.818 36.4544 119.875 35.3976C120.932 34.3408 122.365 33.7471 123.859 33.747Z" fill="#FFC600"/>
<path id="path1009" d="M127.711 50.7784L126.329 55.4105V92.4865L123.859 92.0282L121.391 92.4865V55.4105L119.724 50.7784H123.859H127.711Z" fill="#FFFBF6"/>
<path id="path1003" d="M123.859 92.0282C125.752 92.0281 127.612 92.4386 129.252 93.2185C130.891 93.9983 132.253 95.1201 133.199 96.471C134.146 97.822 134.644 99.3546 134.644 100.915C134.644 102.475 134.146 104.007 133.199 105.358C132.253 106.709 130.891 107.831 129.252 108.611C127.612 109.391 125.753 109.802 123.859 109.802C121.966 109.802 120.107 109.391 118.467 108.611C116.828 107.831 115.466 106.709 114.52 105.358C113.573 104.007 113.075 102.475 113.075 100.915C113.075 99.3546 113.573 97.822 114.52 96.471C115.466 95.1201 116.828 93.9983 118.467 93.2185C120.107 92.4386 121.966 92.0281 123.859 92.0282Z" fill="#FFC600"/>
<path id="rect1061" d="M134.639 100.779C134.661 101.957 134.399 103.127 133.868 104.22H113.863C113.33 103.127 113.067 101.957 113.088 100.779H134.639Z" fill="#192E41"/>
<path id="path991" d="M136.878 98.162L134.019 110.416V121.662L138.468 152.843H130.025L127.362 136.412V109.095L130.553 101.622L131.039 98.162H136.878Z" fill="#F6F2ED"/>
<path id="path993" d="M138.468 152.843H136.778L132.294 121.705H134.025L138.468 152.843Z" fill="#EDEBE9"/>
<path id="path995" d="M134.019 110.416H132.27L132.295 121.705L134.019 121.662L134.019 110.416Z" fill="#EDEBE9"/>
<path id="path997" d="M134.019 110.416H132.27L135.094 98.162H136.878L134.019 110.416Z" fill="#EDEBE9"/>
<path id="path999" d="M127.362 109.095V136.412L130.025 152.843H123.86H123.859H117.695L120.357 136.412V109.095H123.859H123.86H127.362Z" fill="#FFFBF6"/>
<path id="path1011-7" d="M125.126 45.0543C128.007 45.0478 130.384 45.3756 132.477 46.6875C131.019 47.7371 131.912 51.0276 129.254 51.9708C125.658 51.2042 122.061 51.2916 118.465 51.9708C115.807 51.0276 116.7 47.7371 115.242 46.6875C117.634 45.1882 120.398 44.9737 123.86 45.0761C124.292 45.0631 124.714 45.0553 125.126 45.0543Z" fill="#F6F2ED"/>
<path id="path1005" d="M129.445 50.035L128.466 59.9656V72.4728L129.85 93.7308L129.175 93.9579L126.329 92.4865V55.4105L126.728 51.4099L127.771 51.1057L128.194 50.035H129.445Z" fill="#F6F2ED"/>
<path id="path1007" d="M129.85 93.7306L129.175 93.9583L127.783 72.3855V60.0182L128.851 50.0351H129.446L128.466 59.9657V72.4731L129.85 93.7306Z" fill="#E1D9D0"/>
<path id="path1015" d="M125.249 41.3263C128.679 41.3284 133.297 41.7226 136.297 44.0471C135.835 44.7114 135.264 45.2759 134.685 45.7247L123.859 43.5695L113.034 45.7247C112.455 45.2759 111.885 44.7114 111.423 44.0471C114.851 41.3905 120.499 40.488 123.966 40.5775C124.399 40.5663 124.759 41.326 125.249 41.3263Z" fill="#E8E8E8"/>
<path id="rect1069" d="M125.126 45.0543C127.267 45.0491 129.13 45.2314 130.804 45.8629C131.363 46.112 131.92 46.3818 132.475 46.6875C132.476 46.6878 132.477 46.6872 132.477 46.6875C131.924 47.0856 131.709 47.8071 131.511 48.5997C126.358 47.1492 121.247 46.8724 116.208 48.5997C116.01 47.8071 115.795 47.0856 115.242 46.6875C115.732 46.4121 116.22 46.1701 116.708 45.9434C118.755 45.1178 121.082 44.994 123.86 45.0761C124.292 45.0633 124.714 45.0553 125.126 45.0543Z" fill="#192E41"/>
<path id="path1013" d="M134.685 45.7247C134.094 46.3007 133.499 46.6262 132.477 46.6875C124.556 44.2582 121.712 44.8392 115.242 46.6875C114.22 46.6262 113.625 46.3007 113.034 45.7247C118.954 42.341 130.027 42.6872 134.685 45.7247Z" fill="#F6F2ED"/>
<path id="path1017" d="M136.314 41.4319L136.297 44.0471C130.046 40.3895 116.413 40.4336 111.423 44.0471L111.406 41.4319C117.56 37.938 130.416 37.8659 136.314 41.4319Z" fill="#F6F2ED"/>
<path id="path1021" d="M116.68 98.162L117.166 101.622L120.357 109.095V136.412L117.695 152.843H109.251L113.7 121.662V110.416L110.842 98.162H116.68Z" fill="#F6F2ED"/>
<path id="path1023" d="M109.251 152.843H110.941L115.425 121.705H113.694L109.251 152.843Z" fill="#EDEBE9"/>
<path id="path1025" d="M113.7 110.416H115.449L115.425 121.705L113.7 121.662L113.7 110.416Z" fill="#EDEBE9"/>
<path id="path1027" d="M113.7 110.416H115.449L112.625 98.162H110.842L113.7 110.416Z" fill="#EDEBE9"/>
<path id="path1033" d="M119.525 50.035L119.948 51.1057L120.992 51.4107L121.391 55.4105V92.4865L118.544 93.9579L117.87 93.7308L119.253 72.4728V59.9656L118.274 50.035H119.525Z" fill="#E1D9D0"/>
<path id="path1035" d="M117.87 93.7306L118.544 93.9583L119.937 72.3855V60.0182L118.868 50.0351H118.274L119.253 59.9657V72.4731L117.87 93.7306Z" fill="#EDEBE9"/>
<path id="rect1059" d="M131.158 94.3871C131.962 94.9928 132.651 95.6954 133.199 96.471C133.499 96.9054 133.754 97.3597 133.961 97.8294H113.755C113.963 97.3597 114.219 96.9053 114.52 96.471C115.063 95.6964 115.745 94.9939 116.543 94.3871H131.158Z" fill="#192E41"/>
<path id="rect1078" d="M116.994 114.306H130.767V115.751H116.994V114.306Z" fill="#43434F"/>
<path id="rect1080" d="M134.019 114.306H135.336V115.751H134.019V114.306Z" fill="#43434F"/>
<path id="rect1082" d="M112.383 114.306H113.7V115.751H112.383V114.306Z" fill="#43434F"/>
<path id="rect1084" d="M118.385 115.751H129.376V116.208H118.385V115.751Z" fill="#FFD6A0"/>
<path id="rect1086" d="M118.385 116.208H129.376V116.664H118.385V116.208Z" fill="#43434F"/>
<path id="path1107" d="M123.86 24L124.306 33.747L123.86 33.7647L123.413 33.747L123.86 24Z" fill="#ECF0EA"/>
</g>
</g>
</g>
</g>
</g>
</g>
<defs>
<filter id="filter0_d_13_7553" x="81.9062" y="94.6423" width="9.12707" height="9.56075" filterUnits="userSpaceOnUse" color-interpolation-filters="sRGB">
<feFlood flood-opacity="0" result="BackgroundImageFix"/>
<feColorMatrix in="SourceAlpha" type="matrix" values="0 0 0 0 0 0 0 0 0 0 0 0 0 0 0 0 0 0 127 0" result="hardAlpha"/>
<feOffset dy="1.77395"/>
<feGaussianBlur stdDeviation="0.886976"/>
<feComposite in2="hardAlpha" operator="out"/>
<feColorMatrix type="matrix" values="0 0 0 0 0 0 0 0 0 0 0 0 0 0 0 0 0 0 0.25 0"/>
<feBlend mode="normal" in2="BackgroundImageFix" result="effect1_dropShadow_13_7553"/>
<feBlend mode="normal" in="SourceGraphic" in2="effect1_dropShadow_13_7553" result="shape"/>
</filter>
<filter id="filter1_d_13_7553" x="78.8323" y="55.8486" width="8.1255" height="7.72463" filterUnits="userSpaceOnUse" color-interpolation-filters="sRGB">
<feFlood flood-opacity="0" result="BackgroundImageFix"/>
<feColorMatrix in="SourceAlpha" type="matrix" values="0 0 0 0 0 0 0 0 0 0 0 0 0 0 0 0 0 0 127 0" result="hardAlpha"/>
<feOffset dy="1.77395"/>
<feGaussianBlur stdDeviation="0.886976"/>
<feComposite in2="hardAlpha" operator="out"/>
<feColorMatrix type="matrix" values="0 0 0 0 0 0 0 0 0 0 0 0 0 0 0 0 0 0 0.25 0"/>
<feBlend mode="normal" in2="BackgroundImageFix" result="effect1_dropShadow_13_7553"/>
<feBlend mode="normal" in="SourceGraphic" in2="effect1_dropShadow_13_7553" result="shape"/>
</filter>
<filter id="filter2_d_13_7553" x="78.9522" y="99.1887" width="13.8059" height="9.39742" filterUnits="userSpaceOnUse" color-interpolation-filters="sRGB">
<feFlood flood-opacity="0" result="BackgroundImageFix"/>
<feColorMatrix in="SourceAlpha" type="matrix" values="0 0 0 0 0 0 0 0 0 0 0 0 0 0 0 0 0 0 127 0" result="hardAlpha"/>
<feOffset dy="1.77395"/>
<feGaussianBlur stdDeviation="0.886976"/>
<feComposite in2="hardAlpha" operator="out"/>
<feColorMatrix type="matrix" values="0 0 0 0 0 0 0 0 0 0 0 0 0 0 0 0 0 0 0.25 0"/>
<feBlend mode="normal" in2="BackgroundImageFix" result="effect1_dropShadow_13_7553"/>
<feBlend mode="normal" in="SourceGraphic" in2="effect1_dropShadow_13_7553" result="shape"/>
</filter>
<filter id="filter3_d_13_7553" x="64.4123" y="89.8054" width="23.4136" height="14.7019" filterUnits="userSpaceOnUse" color-interpolation-filters="sRGB">
<feFlood flood-opacity="0" result="BackgroundImageFix"/>
<feColorMatrix in="SourceAlpha" type="matrix" values="0 0 0 0 0 0 0 0 0 0 0 0 0 0 0 0 0 0 127 0" result="hardAlpha"/>
<feOffset dy="1.77395"/>
<feGaussianBlur stdDeviation="0.886976"/>
<feComposite in2="hardAlpha" operator="out"/>
<feColorMatrix type="matrix" values="0 0 0 0 0 0 0 0 0 0 0 0 0 0 0 0 0 0 0.25 0"/>
<feBlend mode="normal" in2="BackgroundImageFix" result="effect1_dropShadow_13_7553"/>
<feBlend mode="normal" in="SourceGraphic" in2="effect1_dropShadow_13_7553" result="shape"/>
</filter>
<filter id="filter4_d_13_7553" x="73.6537" y="74.8962" width="14.4199" height="14.4452" filterUnits="userSpaceOnUse" color-interpolation-filters="sRGB">
<feFlood flood-opacity="0" result="BackgroundImageFix"/>
<feColorMatrix in="SourceAlpha" type="matrix" values="0 0 0 0 0 0 0 0 0 0 0 0 0 0 0 0 0 0 127 0" result="hardAlpha"/>
<feOffset dy="1.77395"/>
<feGaussianBlur stdDeviation="0.886976"/>
<feComposite in2="hardAlpha" operator="out"/>
<feColorMatrix type="matrix" values="0 0 0 0 0 0 0 0 0 0 0 0 0 0 0 0 0 0 0.25 0"/>
<feBlend mode="normal" in2="BackgroundImageFix" result="effect1_dropShadow_13_7553"/>
<feBlend mode="normal" in="SourceGraphic" in2="effect1_dropShadow_13_7553" result="shape"/>
</filter>
<filter id="filter5_d_13_7553" x="92.1959" y="57.6446" width="12.2436" height="11.2194" filterUnits="userSpaceOnUse" color-interpolation-filters="sRGB">
<feFlood flood-opacity="0" result="BackgroundImageFix"/>
<feColorMatrix in="SourceAlpha" type="matrix" values="0 0 0 0 0 0 0 0 0 0 0 0 0 0 0 0 0 0 127 0" result="hardAlpha"/>
<feOffset dy="1.77395"/>
<feGaussianBlur stdDeviation="0.886976"/>
<feComposite in2="hardAlpha" operator="out"/>
<feColorMatrix type="matrix" values="0 0 0 0 0 0 0 0 0 0 0 0 0 0 0 0 0 0 0.25 0"/>
<feBlend mode="normal" in2="BackgroundImageFix" result="effect1_dropShadow_13_7553"/>
<feBlend mode="normal" in="SourceGraphic" in2="effect1_dropShadow_13_7553" result="shape"/>
</filter>
<filter id="filter6_d_13_7553" x="42.5219" y="37.4766" width="27.889" height="37.0802" filterUnits="userSpaceOnUse" color-interpolation-filters="sRGB">
<feFlood flood-opacity="0" result="BackgroundImageFix"/>
<feColorMatrix in="SourceAlpha" type="matrix" values="0 0 0 0 0 0 0 0 0 0 0 0 0 0 0 0 0 0 127 0" result="hardAlpha"/>
<feOffset dy="1.77395"/>
<feGaussianBlur stdDeviation="0.886976"/>
<feComposite in2="hardAlpha" operator="out"/>
<feColorMatrix type="matrix" values="0 0 0 0 0 0 0 0 0 0 0 0 0 0 0 0 0 0 0.25 0"/>
<feBlend mode="normal" in2="BackgroundImageFix" result="effect1_dropShadow_13_7553"/>
<feBlend mode="normal" in="SourceGraphic" in2="effect1_dropShadow_13_7553" result="shape"/>
</filter>
<filter id="filter7_d_13_7553" x="54.6148" y="30.0878" width="28.5006" height="28.1763" filterUnits="userSpaceOnUse" color-interpolation-filters="sRGB">
<feFlood flood-opacity="0" result="BackgroundImageFix"/>
<feColorMatrix in="SourceAlpha" type="matrix" values="0 0 0 0 0 0 0 0 0 0 0 0 0 0 0 0 0 0 127 0" result="hardAlpha"/>
<feOffset dy="1.77395"/>
<feGaussianBlur stdDeviation="0.886976"/>
<feComposite in2="hardAlpha" operator="out"/>
<feColorMatrix type="matrix" values="0 0 0 0 0 0 0 0 0 0 0 0 0 0 0 0 0 0 0.25 0"/>
<feBlend mode="normal" in2="BackgroundImageFix" result="effect1_dropShadow_13_7553"/>
<feBlend mode="normal" in="SourceGraphic" in2="effect1_dropShadow_13_7553" result="shape"/>
</filter>
<filter id="filter8_d_13_7553" x="89.6101" y="68.2881" width="13.7007" height="25.0964" filterUnits="userSpaceOnUse" color-interpolation-filters="sRGB">
<feFlood flood-opacity="0" result="BackgroundImageFix"/>
<feColorMatrix in="SourceAlpha" type="matrix" values="0 0 0 0 0 0 0 0 0 0 0 0 0 0 0 0 0 0 127 0" result="hardAlpha"/>
<feOffset dy="1.77395"/>
<feGaussianBlur stdDeviation="0.886976"/>
<feComposite in2="hardAlpha" operator="out"/>
<feColorMatrix type="matrix" values="0 0 0 0 0 0 0 0 0 0 0 0 0 0 0 0 0 0 0.25 0"/>
<feBlend mode="normal" in2="BackgroundImageFix" result="effect1_dropShadow_13_7553"/>
<feBlend mode="normal" in="SourceGraphic" in2="effect1_dropShadow_13_7553" result="shape"/>
</filter>
<filter id="filter9_d_13_7553" x="106.498" y="92.3372" width="27.8847" height="25.2622" filterUnits="userSpaceOnUse" color-interpolation-filters="sRGB">
<feFlood flood-opacity="0" result="BackgroundImageFix"/>
<feColorMatrix in="SourceAlpha" type="matrix" values="0 0 0 0 0 0 0 0 0 0 0 0 0 0 0 0 0 0 127 0" result="hardAlpha"/>
<feOffset dy="1.77395"/>
<feGaussianBlur stdDeviation="0.886976"/>
<feComposite in2="hardAlpha" operator="out"/>
<feColorMatrix type="matrix" values="0 0 0 0 0 0 0 0 0 0 0 0 0 0 0 0 0 0 0.25 0"/>
<feBlend mode="normal" in2="BackgroundImageFix" result="effect1_dropShadow_13_7553"/>
<feBlend mode="normal" in="SourceGraphic" in2="effect1_dropShadow_13_7553" result="shape"/>
</filter>
<filter id="filter10_d_13_7553" x="51.8737" y="69.64" width="22.1437" height="31.6808" filterUnits="userSpaceOnUse" color-interpolation-filters="sRGB">
<feFlood flood-opacity="0" result="BackgroundImageFix"/>
<feColorMatrix in="SourceAlpha" type="matrix" values="0 0 0 0 0 0 0 0 0 0 0 0 0 0 0 0 0 0 127 0" result="hardAlpha"/>
<feOffset dy="1.77395"/>
<feGaussianBlur stdDeviation="0.886976"/>
<feComposite in2="hardAlpha" operator="out"/>
<feColorMatrix type="matrix" values="0 0 0 0 0 0 0 0 0 0 0 0 0 0 0 0 0 0 0.25 0"/>
<feBlend mode="normal" in2="BackgroundImageFix" result="effect1_dropShadow_13_7553"/>
<feBlend mode="normal" in="SourceGraphic" in2="effect1_dropShadow_13_7553" result="shape"/>
</filter>
<filter id="filter11_d_13_7553" x="65.7898" y="57.4149" width="29.1299" height="19.0334" filterUnits="userSpaceOnUse" color-interpolation-filters="sRGB">
<feFlood flood-opacity="0" result="BackgroundImageFix"/>
<feColorMatrix in="SourceAlpha" type="matrix" values="0 0 0 0 0 0 0 0 0 0 0 0 0 0 0 0 0 0 127 0" result="hardAlpha"/>
<feOffset dy="1.77395"/>
<feGaussianBlur stdDeviation="0.886976"/>
<feComposite in2="hardAlpha" operator="out"/>
<feColorMatrix type="matrix" values="0 0 0 0 0 0 0 0 0 0 0 0 0 0 0 0 0 0 0.25 0"/>
<feBlend mode="normal" in2="BackgroundImageFix" result="effect1_dropShadow_13_7553"/>
<feBlend mode="normal" in="SourceGraphic" in2="effect1_dropShadow_13_7553" result="shape"/>
</filter>
<filter id="filter12_d_13_7553" x="42.3805" y="47.6916" width="22.0659" height="30.3752" filterUnits="userSpaceOnUse" color-interpolation-filters="sRGB">
<feFlood flood-opacity="0" result="BackgroundImageFix"/>
<feColorMatrix in="SourceAlpha" type="matrix" values="0 0 0 0 0 0 0 0 0 0 0 0 0 0 0 0 0 0 127 0" result="hardAlpha"/>
<feOffset dy="1.77395"/>
<feGaussianBlur stdDeviation="0.886976"/>
<feComposite in2="hardAlpha" operator="out"/>
<feColorMatrix type="matrix" values="0 0 0 0 0 0 0 0 0 0 0 0 0 0 0 0 0 0 0.25 0"/>
<feBlend mode="normal" in2="BackgroundImageFix" result="effect1_dropShadow_13_7553"/>
<feBlend mode="normal" in="SourceGraphic" in2="effect1_dropShadow_13_7553" result="shape"/>
</filter>
<filter id="filter13_d_13_7553" x="49.2161" y="28.1996" width="39.0622" height="37.3132" filterUnits="userSpaceOnUse" color-interpolation-filters="sRGB">
<feFlood flood-opacity="0" result="BackgroundImageFix"/>
<feColorMatrix in="SourceAlpha" type="matrix" values="0 0 0 0 0 0 0 0 0 0 0 0 0 0 0 0 0 0 127 0" result="hardAlpha"/>
<feOffset dy="1.77395"/>
<feGaussianBlur stdDeviation="0.886976"/>
<feComposite in2="hardAlpha" operator="out"/>
<feColorMatrix type="matrix" values="0 0 0 0 0 0 0 0 0 0 0 0 0 0 0 0 0 0 0.25 0"/>
<feBlend mode="normal" in2="BackgroundImageFix" result="effect1_dropShadow_13_7553"/>
<feBlend mode="normal" in="SourceGraphic" in2="effect1_dropShadow_13_7553" result="shape"/>
</filter>
<filter id="filter14_d_13_7553" x="75.2732" y="72.4484" width="20.1649" height="23.2281" filterUnits="userSpaceOnUse" color-interpolation-filters="sRGB">
<feFlood flood-opacity="0" result="BackgroundImageFix"/>
<feColorMatrix in="SourceAlpha" type="matrix" values="0 0 0 0 0 0 0 0 0 0 0 0 0 0 0 0 0 0 127 0" result="hardAlpha"/>
<feOffset dy="1.77395"/>
<feGaussianBlur stdDeviation="0.886976"/>
<feComposite in2="hardAlpha" operator="out"/>
<feColorMatrix type="matrix" values="0 0 0 0 0 0 0 0 0 0 0 0 0 0 0 0 0 0 0.25 0"/>
<feBlend mode="normal" in2="BackgroundImageFix" result="effect1_dropShadow_13_7553"/>
<feBlend mode="normal" in="SourceGraphic" in2="effect1_dropShadow_13_7553" result="shape"/>
</filter>
<filter id="filter15_d_13_7553" x="85.0667" y="87.9461" width="18.6439" height="18.9835" filterUnits="userSpaceOnUse" color-interpolation-filters="sRGB">
<feFlood flood-opacity="0" result="BackgroundImageFix"/>
<feColorMatrix in="SourceAlpha" type="matrix" values="0 0 0 0 0 0 0 0 0 0 0 0 0 0 0 0 0 0 127 0" result="hardAlpha"/>
<feOffset dy="1.77395"/>
<feGaussianBlur stdDeviation="0.886976"/>
<feComposite in2="hardAlpha" operator="out"/>
<feColorMatrix type="matrix" values="0 0 0 0 0 0 0 0 0 0 0 0 0 0 0 0 0 0 0.25 0"/>
<feBlend mode="normal" in2="BackgroundImageFix" result="effect1_dropShadow_13_7553"/>
<feBlend mode="normal" in="SourceGraphic" in2="effect1_dropShadow_13_7553" result="shape"/>
</filter>
</defs>
</svg>
