<svg width="20" height="20" viewBox="0 0 20 20" fill="none" xmlns="http://www.w3.org/2000/svg">
<g id="Home">
<path id="Home_2" d="M7.13487 18.7733V15.7156C7.13487 14.9351 7.77226 14.3023 8.55853 14.3023H11.4327C11.8103 14.3023 12.1724 14.4512 12.4394 14.7163C12.7064 14.9813 12.8564 15.3408 12.8564 15.7156V18.7733C12.854 19.0979 12.9822 19.4099 13.2125 19.6402C13.4428 19.8705 13.7561 20 14.083 20H16.0439C16.9597 20.0024 17.8388 19.6428 18.4873 19.0008C19.1357 18.3588 19.5001 17.487 19.5001 16.5778V7.86686C19.5001 7.13246 19.1722 6.43584 18.6047 5.96467L11.9341 0.675869C10.7738 -0.251438 9.1112 -0.221498 7.98548 0.746979L1.4671 5.96467C0.872832 6.42195 0.517644 7.12064 0.500092 7.86686V16.5689C0.500092 18.4639 2.04747 20 3.95626 20H5.87238C6.55132 20 7.10309 19.4562 7.10801 18.7822L7.13487 18.7733Z" fill="#093C88"/>
</g>
</svg>
