<svg width="20" height="20" viewBox="0 0 20 20" fill="none" xmlns="http://www.w3.org/2000/svg">
<g id="Category">
<path id="Stroke 1" fill-rule="evenodd" clip-rule="evenodd" d="M1 4.50012C1 1.87491 1.02811 1.00012 4.5 1.00012C7.97189 1.00012 8 1.87491 8 4.50012C8 7.12534 8.01107 8.00012 4.5 8.00012C0.988927 8.00012 1 7.12534 1 4.50012Z" stroke="#093C88" stroke-width="1.77621" stroke-linecap="round" stroke-linejoin="round"/>
<path id="Stroke 3" fill-rule="evenodd" clip-rule="evenodd" d="M11.9998 4.50012C11.9998 1.87491 12.028 1.00012 15.4998 1.00012C18.9717 1.00012 18.9998 1.87491 18.9998 4.50012C18.9998 7.12533 19.0109 8.00012 15.4998 8.00012C11.9888 8.00012 11.9998 7.12533 11.9998 4.50012Z" stroke="#093C88" stroke-width="1.77621" stroke-linecap="round" stroke-linejoin="round"/>
<path id="Stroke 5" fill-rule="evenodd" clip-rule="evenodd" d="M0.999909 15.5001C0.999909 12.8749 1.02802 12.0001 4.49991 12.0001C7.9718 12.0001 7.99991 12.8749 7.99991 15.5001C7.99991 18.1253 8.01098 19.0001 4.49991 19.0001C0.988836 19.0001 0.999909 18.1253 0.999909 15.5001Z" stroke="#093C88" stroke-width="1.77621" stroke-linecap="round" stroke-linejoin="round"/>
<path id="Stroke 7" fill-rule="evenodd" clip-rule="evenodd" d="M11.9998 15.5001C11.9998 12.8749 12.028 12.0001 15.4998 12.0001C18.9717 12.0001 18.9998 12.8749 18.9998 15.5001C18.9998 18.1253 19.0109 19.0001 15.4998 19.0001C11.9888 19.0001 11.9998 18.1253 11.9998 15.5001Z" stroke="#093C88" stroke-width="1.77621" stroke-linecap="round" stroke-linejoin="round"/>
</g>
</svg>
