<svg width="18" height="17" viewBox="0 0 18 17" fill="none" xmlns="http://www.w3.org/2000/svg">
<g id="Filter">
<path id="Stroke 1" d="M7.33014 13.5928H1.02942" stroke="#093C88" stroke-width="1.77621" stroke-linecap="round" stroke-linejoin="round"/>
<path id="Stroke 3" d="M10.1402 3.90054H16.4409" stroke="#093C88" stroke-width="1.77621" stroke-linecap="round" stroke-linejoin="round"/>
<path id="Stroke 5" fill-rule="evenodd" clip-rule="evenodd" d="M5.72641 3.84625C5.72641 2.5506 4.66825 1.5 3.36327 1.5C2.05828 1.5 1.00012 2.5506 1.00012 3.84625C1.00012 5.14191 2.05828 6.19251 3.36327 6.19251C4.66825 6.19251 5.72641 5.14191 5.72641 3.84625Z" stroke="#093C88" stroke-width="1.77621" stroke-linecap="round" stroke-linejoin="round"/>
<path id="Stroke 7" fill-rule="evenodd" clip-rule="evenodd" d="M17 13.554C17 12.2584 15.9426 11.2078 14.6376 11.2078C13.3318 11.2078 12.2737 12.2584 12.2737 13.554C12.2737 14.8497 13.3318 15.9003 14.6376 15.9003C15.9426 15.9003 17 14.8497 17 13.554Z" stroke="#093C88" stroke-width="1.77621" stroke-linecap="round" stroke-linejoin="round"/>
</g>
</svg>
