<svg width="19" height="20" viewBox="0 0 19 20" fill="none" xmlns="http://www.w3.org/2000/svg">
<g id="Document">
<path id="Document_2" fill-rule="evenodd" clip-rule="evenodd" d="M5.31 -0.00012207H13.691C16.78 -0.00012207 18.5 1.77988 18.5 4.82988V15.1599C18.5 18.2599 16.78 19.9999 13.691 19.9999H5.31C2.27 19.9999 0.5 18.2599 0.5 15.1599V4.82988C0.5 1.77988 2.27 -0.00012207 5.31 -0.00012207ZM5.58022 4.65987V4.64987H8.56922C9.00022 4.64987 9.35022 4.99987 9.35022 5.42887C9.35022 5.86987 9.00022 6.21987 8.56922 6.21987H5.58022C5.14922 6.21987 4.80022 5.86987 4.80022 5.43987C4.80022 5.00987 5.14922 4.65987 5.58022 4.65987ZM5.58022 10.74H13.4202C13.8502 10.74 14.2002 10.39 14.2002 9.95997C14.2002 9.52997 13.8502 9.17897 13.4202 9.17897H5.58022C5.14922 9.17897 4.80022 9.52997 4.80022 9.95997C4.80022 10.39 5.14922 10.74 5.58022 10.74ZM5.58002 15.3099H13.42C13.819 15.2699 14.12 14.9289 14.12 14.5299C14.12 14.1199 13.819 13.7799 13.42 13.7399H5.58002C5.28002 13.7099 4.99002 13.8499 4.83002 14.1099C4.67002 14.3599 4.67002 14.6899 4.83002 14.9499C4.99002 15.1999 5.28002 15.3499 5.58002 15.3099Z" fill="#093C88"/>
</g>
</svg>
