<svg width="21" height="22" viewBox="0 0 21 22" fill="none" xmlns="http://www.w3.org/2000/svg">
<g id="Home">
<path id="Home_2" d="M7.65734 19.7714V16.7047C7.65732 15.9246 8.29324 15.2908 9.08113 15.2856H11.9672C12.7589 15.2856 13.4006 15.9209 13.4006 16.7047V16.7047V19.7809C13.4004 20.4432 13.9344 20.9845 14.6032 21H16.5272C18.4452 21 20.0001 19.4607 20.0001 17.5618V17.5618V8.83784C19.9899 8.09083 19.6356 7.38935 19.0381 6.93303L12.4578 1.6853C11.3051 0.771566 9.66633 0.771566 8.51354 1.6853L1.96215 6.94256C1.36238 7.39702 1.00751 8.09967 1.00012 8.84736V17.5618C1.00012 19.4607 2.555 21 4.47303 21H6.39708C7.08248 21 7.6381 20.4499 7.6381 19.7714V19.7714" stroke="#093C88" stroke-width="1.77621" stroke-linecap="round" stroke-linejoin="round"/>
</g>
</svg>
