<svg width="21" height="25" viewBox="0 0 21 25" fill="none" xmlns="http://www.w3.org/2000/svg">
<g id="Paper">
<path id="Paper_2" fill-rule="evenodd" clip-rule="evenodd" d="M6.85941 17.8275H13.2374C13.718 17.8275 14.1167 17.4249 14.1167 16.9394C14.1167 16.4539 13.718 16.0631 13.2374 16.0631H6.85941C6.37872 16.0631 5.9801 16.4539 5.9801 16.9394C5.9801 17.4249 6.37872 17.8275 6.85941 17.8275ZM10.8222 10.1425H6.85941C6.37872 10.1425 5.9801 10.5451 5.9801 11.0306C5.9801 11.5161 6.37872 11.9068 6.85941 11.9068H10.8222C11.3029 11.9068 11.7015 11.5161 11.7015 11.0306C11.7015 10.5451 11.3029 10.1425 10.8222 10.1425ZM19.1893 9.107C19.4649 9.10382 19.765 9.10035 20.0376 9.10035C20.3307 9.10035 20.5652 9.33718 20.5652 9.63321V19.1537C20.5652 22.0904 18.2086 24.4705 15.301 24.4705H5.96862C2.92034 24.4705 0.434814 21.972 0.434814 18.8932V6.12816C0.434814 3.19149 2.80309 0.787689 5.72241 0.787689H11.9831C12.2879 0.787689 12.5224 1.03636 12.5224 1.33239V5.14532C12.5224 7.3123 14.2928 9.08851 16.4383 9.10035C16.9394 9.10035 17.3812 9.1041 17.7679 9.10738C18.0687 9.10993 18.3361 9.11219 18.5721 9.11219C18.739 9.11219 18.9553 9.1097 19.1893 9.107ZM19.5123 7.37872C18.5486 7.38228 17.4125 7.37872 16.5953 7.37043C15.2986 7.37043 14.2306 6.29168 14.2306 4.98202V1.86063C14.2306 1.35027 14.8437 1.09686 15.1943 1.46513C15.8289 2.13156 16.701 3.04768 17.5691 3.95957C18.4347 4.86886 19.2963 5.77396 19.9144 6.42312C20.2568 6.78192 20.0059 7.37754 19.5123 7.37872Z" fill="#FF8B00"/>
</g>
</svg>
