<svg width="23" height="25" viewBox="0 0 23 25" fill="none" xmlns="http://www.w3.org/2000/svg">
<g id="Document">
<path id="Document_2" fill-rule="evenodd" clip-rule="evenodd" d="M6.53836 0.368134H16.4626C20.1204 0.368134 22.1572 2.4759 22.1572 6.08753V18.3197C22.1572 21.9905 20.1204 24.0509 16.4626 24.0509H6.53836C2.93858 24.0509 0.842651 21.9905 0.842651 18.3197V6.08753C0.842651 2.4759 2.93858 0.368134 6.53836 0.368134ZM6.8584 5.88621V5.87437H10.3978C10.9082 5.87437 11.3226 6.28882 11.3226 6.79681C11.3226 7.31902 10.9082 7.73347 10.3978 7.73347H6.8584C6.34803 7.73347 5.93477 7.31902 5.93477 6.80984C5.93477 6.30066 6.34803 5.88621 6.8584 5.88621ZM6.8584 13.0859H16.1421C16.6512 13.0859 17.0657 12.6714 17.0657 12.1623C17.0657 11.6531 16.6512 11.2375 16.1421 11.2375H6.8584C6.34803 11.2375 5.93477 11.6531 5.93477 12.1623C5.93477 12.6714 6.34803 13.0859 6.8584 13.0859ZM6.85815 18.4974H16.1418C16.6143 18.45 16.9707 18.0462 16.9707 17.5737C16.9707 17.0882 16.6143 16.6856 16.1418 16.6383H6.85815C6.50291 16.6027 6.15951 16.7685 5.97005 17.0764C5.78059 17.3724 5.78059 17.7632 5.97005 18.0711C6.15951 18.3671 6.50291 18.5447 6.85815 18.4974Z" fill="#3EA95F"/>
</g>
</svg>
