<svg width="12" height="12" viewBox="0 0 12 12" fill="none" xmlns="http://www.w3.org/2000/svg">
<g id="Iconly">
<g id="Paper Download">
<path id="Paper Download_2" fill-rule="evenodd" clip-rule="evenodd" d="M6.07673 8.32002L7.49752 6.88502C7.64109 6.73502 7.64109 6.50002 7.49257 6.35502C7.34901 6.21002 7.11634 6.21002 6.97277 6.35502L6.18564 7.15502V4.74502C6.18564 4.53502 6.02228 4.37002 5.81931 4.37002C5.61634 4.37002 5.44802 4.53502 5.44802 4.74502V7.15502L4.66089 6.35502C4.51733 6.21002 4.28465 6.21002 4.14109 6.35502C3.99752 6.50002 3.99752 6.73502 4.14109 6.88502L5.55693 8.32002C5.59158 8.35502 5.63119 8.38002 5.67574 8.40002C5.7203 8.42002 5.7698 8.43002 5.81931 8.43002C5.86881 8.43002 5.91337 8.42002 5.95792 8.40002C6.00247 8.38002 6.04208 8.35502 6.07673 8.32002ZM9.66402 4.51281C9.78039 4.51146 9.90709 4.51 10.0222 4.51C10.1509 4.51 10.2499 4.61 10.2499 4.735V8.755C10.2499 9.995 9.24994 11 8.02222 11H4.08657C2.79449 11 1.74994 9.945 1.74994 8.645V3.255C1.74994 2.015 2.74499 1 3.98261 1H6.62618C6.74994 1 6.8539 1.105 6.8539 1.23V2.84C6.8539 3.755 7.59647 4.505 8.50736 4.51C8.71659 4.51 8.9038 4.51159 9.06724 4.51297C9.19384 4.51405 9.30617 4.515 9.4034 4.515C9.47387 4.515 9.56522 4.51395 9.66402 4.51281ZM9.80213 3.7831C9.39569 3.7846 8.91599 3.7831 8.57094 3.7796C8.02342 3.7796 7.57243 3.3241 7.57243 2.7711V1.4531C7.57243 1.2376 7.83134 1.1306 7.97886 1.2861C8.36025 1.68625 8.94417 2.29958 9.43756 2.81783C9.63713 3.02744 9.82188 3.22149 9.97243 3.3796C10.117 3.5311 10.011 3.7826 9.80213 3.7831Z" fill="#FC5A5A"/>
</g>
</g>
</svg>
