<svg width="25" height="25" viewBox="0 0 25 25" fill="none" xmlns="http://www.w3.org/2000/svg">
<g id="Image">
<path id="Image_2" fill-rule="evenodd" clip-rule="evenodd" d="M7.36821 24.0511H17.6307C21.6453 24.0511 24.3415 21.235 24.3415 17.0448V7.37448C24.3415 3.18427 21.6453 0.368256 17.6319 0.368256H7.36821C3.35482 0.368256 0.658661 3.18427 0.658661 7.37448V17.0448C0.658661 21.235 3.35482 24.0511 7.36821 24.0511ZM8.35417 11.0255C6.72166 11.0255 5.39517 9.69721 5.39517 8.06515C5.39517 6.43308 6.72166 5.1048 8.35417 5.1048C9.98549 5.1048 11.3132 6.43308 11.3132 8.06515C11.3132 9.69721 9.98549 11.0255 8.35417 11.0255ZM21.7611 15.6839C22.1576 16.7006 21.9516 17.9226 21.5277 18.9296C21.0252 20.1272 20.0631 21.0339 18.851 21.4298C18.3127 21.6058 17.7483 21.6828 17.1851 21.6828H7.20548C6.2124 21.6828 5.33363 21.4445 4.61323 21.0009C4.16194 20.7223 4.08216 20.0795 4.41676 19.6628C4.97641 18.9662 5.52892 18.2672 6.08618 17.5621C7.14833 16.213 7.86396 15.822 8.65938 16.1654C8.98207 16.3071 9.30595 16.5198 9.63936 16.7446C10.5277 17.3483 11.7625 18.178 13.389 17.2774C14.5021 16.654 15.1477 15.5846 15.7099 14.6534L15.7193 14.6378C15.7591 14.5725 15.7986 14.5072 15.838 14.442L15.838 14.442C16.0269 14.1294 16.2133 13.821 16.4242 13.5368C16.6886 13.1812 17.6685 12.0691 18.9379 12.861C19.7464 13.3596 20.4263 14.0342 21.1538 14.7564C21.4313 15.0326 21.629 15.3466 21.7611 15.6839Z" fill="#8134CD"/>
</g>
</svg>
