<svg width="23" height="25" viewBox="0 0 23 25" fill="none" xmlns="http://www.w3.org/2000/svg">
<g id="Calendar">
<path id="Calendar_2" fill-rule="evenodd" clip-rule="evenodd" d="M16.723 1.69775L16.7242 2.58541C19.9861 2.84105 22.1408 5.06376 22.1443 8.47237L22.1571 18.4497C22.1618 22.166 19.8271 24.4526 16.0847 24.4585L6.9432 24.4704C3.22419 24.4751 0.860196 22.1341 0.85552 18.4071L0.842659 8.54694C0.837983 5.11583 2.9167 2.89905 6.17859 2.59961L6.17742 1.71195C6.17625 1.19119 6.56206 0.799436 7.07648 0.799436C7.5909 0.798252 7.97672 1.18882 7.97789 1.70958L7.97905 2.53807L14.9237 2.5286L14.9225 1.70012C14.9214 1.17935 15.3072 0.788784 15.8216 0.7876C16.3243 0.786417 16.7218 1.17699 16.723 1.69775ZM2.64465 8.91284L20.3453 8.88917V8.47492C20.2951 5.9303 19.0184 4.59526 16.7269 4.39642L16.728 5.30775C16.728 5.81668 16.3317 6.22027 15.829 6.22027C15.3146 6.22145 14.9276 5.81905 14.9276 5.31012L14.9264 4.35145L7.98175 4.36092L7.98292 5.3184C7.98292 5.82851 7.59828 6.23092 7.08386 6.23092C6.56944 6.2321 6.18245 5.83088 6.18245 5.32077L6.18128 4.40944C3.90147 4.63787 2.63998 5.97764 2.64348 8.54475L2.64465 8.91284ZM15.3366 14.292V14.305C15.3483 14.8494 15.7926 15.2625 16.3316 15.2507C16.8577 15.2376 17.2774 14.7867 17.2657 14.2423C17.2412 13.7215 16.8191 13.2966 16.2942 13.2978C15.7564 13.3096 15.3355 13.7475 15.3366 14.292ZM16.3025 19.6061C15.7647 19.5942 15.331 19.1457 15.3298 18.6012C15.3181 18.0568 15.7495 17.6059 16.2873 17.5929H16.299C16.8485 17.5929 17.294 18.0414 17.294 18.5977C17.2951 19.154 16.8509 19.6049 16.3025 19.6061ZM10.5198 14.3109C10.5432 14.8553 10.9886 15.2802 11.5264 15.2565C12.0525 15.2317 12.4722 14.7819 12.4489 14.2375C12.436 13.7049 12.0034 13.2907 11.4773 13.2918C10.9395 13.3155 10.5186 13.7664 10.5198 14.3109ZM11.531 19.5528C10.9932 19.5765 10.549 19.1516 10.5244 18.6072C10.5244 18.0627 10.9441 17.613 11.4819 17.5881C12.008 17.5869 12.4418 18.0012 12.4535 18.5326C12.478 19.0782 12.0571 19.528 11.531 19.5528ZM5.70269 14.3525C5.72608 14.8969 6.17152 15.323 6.70932 15.2981C7.23543 15.2745 7.65515 14.8235 7.6306 14.2791C7.6189 13.7465 7.18632 13.3323 6.65905 13.3334C6.12124 13.3571 5.70152 13.808 5.70269 14.3525ZM6.71438 19.5586C6.17657 19.5835 5.7323 19.1574 5.70775 18.613C5.70658 18.0686 6.12747 17.6176 6.66527 17.594C7.19138 17.5928 7.62513 18.007 7.63682 18.5396C7.66138 19.084 7.24166 19.535 6.71438 19.5586Z" fill="#FFD018"/>
</g>
</svg>
