<svg width="25" height="25" viewBox="0 0 25 25" fill="none" xmlns="http://www.w3.org/2000/svg">
<g id="Info Square">
<path id="Info Square_2" fill-rule="evenodd" clip-rule="evenodd" d="M7.37289 0.786621H17.6394C21.6536 0.786621 24.3416 3.60487 24.3416 7.79673V17.4723C24.3416 21.6523 21.6536 24.4694 17.6394 24.4694H7.37289C3.35865 24.4694 0.658813 21.6523 0.658813 17.4723V7.79673C0.658813 3.60487 3.35865 0.786621 7.37289 0.786621ZM12.4883 9.14782C11.9318 9.14782 11.4699 8.68482 11.4699 8.11761C11.4699 7.53739 11.9318 7.07557 12.512 7.07557C13.0804 7.07557 13.5422 7.53739 13.5422 8.11761C13.5422 8.68482 13.0804 9.14782 12.4883 9.14782ZM13.5305 17.1052C13.5305 17.6736 13.0687 18.1354 12.4885 18.1354C11.9201 18.1354 11.4583 17.6736 11.4583 17.1052V11.8713C11.4583 11.3017 11.9201 10.8293 12.4885 10.8293C13.0687 10.8293 13.5305 11.3017 13.5305 11.8713V17.1052Z" fill="#1B85F3"/>
</g>
</svg>
