<svg width="23" height="22" viewBox="0 0 23 22" fill="none" xmlns="http://www.w3.org/2000/svg">
<g id="Volume Down">
<path id="Volume Down_2" fill-rule="evenodd" clip-rule="evenodd" d="M15.2177 2.86864C15.3706 3.46488 15.4328 4.06239 15.4924 4.63828L15.5484 5.16206C15.7622 6.91008 15.7622 15.4977 15.5484 17.2584L15.4924 17.8012L15.4915 17.8114C15.4383 18.3562 15.3833 18.9199 15.2264 19.5213C14.81 20.9439 13.6998 21.8668 12.4393 21.8668C12.3995 21.8668 12.3597 21.8668 12.315 21.8656C11.6188 21.8656 10.8617 21.4384 10.4329 21.0659L6.25218 17.5839H4.10528C2.44817 17.5839 1.23487 16.385 1.01483 14.5302C0.76123 12.6754 0.810956 9.49335 1.01483 7.80762C1.25476 6.05196 2.52525 4.83533 4.10528 4.83533H6.25218L10.3533 1.40412C10.8481 0.974418 11.7208 0.549806 12.4107 0.552349C13.6476 0.552349 14.8013 1.44225 15.2177 2.86864ZM18.7797 4.41064C19.2758 4.06357 19.9545 4.18816 20.2939 4.69032C21.4948 6.45869 22.1574 8.77371 22.1574 11.2095C22.1574 13.6453 21.4948 15.9603 20.2939 17.7287C20.09 18.0275 19.7568 18.2067 19.4001 18.2067C19.1775 18.2067 18.9625 18.1381 18.7797 18.0084C18.2875 17.6575 18.1656 16.9634 18.5075 16.4599C19.4585 15.059 19.9819 13.194 19.9819 11.2095C19.9819 9.22375 19.4585 7.36003 18.5075 5.95907C18.1656 5.45564 18.2875 4.76151 18.7797 4.41064Z" fill="#FC5A5A"/>
</g>
</svg>
