<svg width="25" height="25" viewBox="0 0 25 25" fill="none" xmlns="http://www.w3.org/2000/svg">
<g id="Category">
<path id="Category_2" fill-rule="evenodd" clip-rule="evenodd" d="M3.66622 0.368317H7.66862C9.33825 0.368317 10.6763 1.73008 10.6763 3.4009V7.43763C10.6763 9.11911 9.33825 10.469 7.66862 10.469H3.66622C2.00843 10.469 0.658508 9.11911 0.658508 7.43763V3.4009C0.658508 1.73008 2.00843 0.368317 3.66622 0.368317ZM3.66625 13.95H7.66865C9.33828 13.95 10.6764 15.3011 10.6764 16.9826V21.0193C10.6764 22.689 9.33828 24.0507 7.66865 24.0507H3.66625C2.00846 24.0507 0.65854 22.689 0.65854 21.0193V16.9826C0.65854 15.3011 2.00846 13.95 3.66625 13.95ZM21.3338 0.368352H17.3314C15.6618 0.368352 14.3237 1.73011 14.3237 3.40093V7.43767C14.3237 9.11914 15.6618 10.4691 17.3314 10.4691H21.3338C22.9916 10.4691 24.3415 9.11914 24.3415 7.43767V3.40093C24.3415 1.73011 22.9916 0.368352 21.3338 0.368352ZM17.3314 13.95H21.3338C22.9916 13.95 24.3415 15.3011 24.3415 16.9826V21.0193C24.3415 22.689 22.9916 24.0507 21.3338 24.0507H17.3314C15.6618 24.0507 14.3237 22.689 14.3237 21.0193V16.9826C14.3237 15.3011 15.6618 13.95 17.3314 13.95Z" fill="#206FF0"/>
</g>
</svg>
