<svg width="25" height="24" viewBox="0 0 25 24" fill="none" xmlns="http://www.w3.org/2000/svg">
<g id="Work">
<path id="Work_2" fill-rule="evenodd" clip-rule="evenodd" d="M11.2833 1.84971C10.4896 1.84971 9.81428 2.4013 9.62472 3.14476H15.9986C15.809 2.4013 15.1337 1.84971 14.34 1.84971H11.2833ZM17.799 3.14484H20.1448C22.6327 3.14484 24.6586 5.19534 24.6586 7.7135C24.6586 7.7135 24.5875 8.77952 24.5638 10.264C24.5615 10.3816 24.5046 10.4967 24.411 10.5662C23.8412 10.9871 23.3199 11.3349 23.2725 11.3588C21.3058 12.6779 19.0205 13.606 16.5859 14.0677C16.4271 14.0988 16.2707 14.0161 16.1902 13.8746C15.5078 12.6923 14.233 11.9224 12.8113 11.9224C11.3991 11.9224 10.1125 12.6839 9.40994 13.8674C9.32819 14.0065 9.17418 14.0868 9.01661 14.0569C6.60212 13.594 4.31677 12.6671 2.36197 11.3708L1.22462 10.5794C1.12985 10.5195 1.07061 10.4115 1.07061 10.2916C1.03507 9.68007 0.97583 7.7135 0.97583 7.7135C0.97583 5.19534 3.00172 3.14484 5.48966 3.14484H7.82358C8.04868 1.40612 9.5059 0.0511074 11.283 0.0511074H14.3396C16.1167 0.0511074 17.5739 1.40612 17.799 3.14484ZM24.2562 12.8578L24.2088 12.8818C21.8156 14.4886 18.9368 15.5559 15.9157 15.9995C15.4892 16.0595 15.0627 15.7837 14.9442 15.352C14.6836 14.3687 13.8424 13.7212 12.8354 13.7212H12.8235H12.7998C11.7928 13.7212 10.9517 14.3687 10.691 15.352C10.5725 15.7837 10.146 16.0595 9.71953 15.9995C6.69847 15.5559 3.81957 14.4886 1.42641 12.8818C1.41456 12.8698 1.29609 12.7979 1.20131 12.8578C1.09468 12.9178 1.09468 13.0617 1.09468 13.0617L1.17762 19.1772C1.17762 21.6954 3.19166 23.7339 5.6796 23.7339H19.9438C22.4317 23.7339 24.4458 21.6954 24.4458 19.1772L24.5405 13.0617C24.5405 13.0617 24.5405 12.9178 24.4339 12.8578C24.3747 12.8219 24.3036 12.8339 24.2562 12.8578ZM13.7001 17.8822C13.7001 18.3858 13.3091 18.7815 12.8116 18.7815C12.3258 18.7815 11.923 18.3858 11.923 17.8822V16.3353C11.923 15.8437 12.3258 15.436 12.8116 15.436C13.3091 15.436 13.7001 15.8437 13.7001 16.3353V17.8822Z" fill="white"/>
</g>
</svg>
